<?xml version="1.0" encoding="UTF-8"?>
<svg width="50px" height="50px" viewBox="0 0 50 50" version="1.1" xmlns="http://www.w3.org/2000/svg" xmlns:xlink="http://www.w3.org/1999/xlink">
    <!-- Generator: Sketch 60.1 (88133) - https://sketch.com -->
    <title>audio-icon</title>
    <desc>Created with Sketch.</desc>
    <g id="audio-icon" stroke="none" stroke-width="1" fill="none" fill-rule="evenodd">
        <g id="_ionicons_svg_md-mic" transform="translate(25.500000, 24.500000) scale(-1, 1) translate(-25.500000, -24.500000) translate(10.000000, 3.000000)" fill="#325C6F" fill-rule="nonzero">
            <path d="M15.5,27.6428571 C19.15335,27.6428571 22.1428156,24.6747054 22.1428156,21.0475402 L22.1428156,6.59531696 C22.1428156,2.96815179 19.15335,0 15.5,0 C11.84665,0 8.85718437,2.96815179 8.85718437,6.59531696 L8.85718437,21.0475402 C8.85718437,24.6747054 11.84665,27.6428571 15.5,27.6428571 Z M27.2353406,20.4008125 C27.2353406,26.9961295 21.5892719,31.6129665 15.5,31.6129665 C9.41072812,31.6129665 3.76465937,26.9960335 3.76465937,20.4008125 L0,20.4008125 C0,27.8752299 5.97902812,34.1409442 13.285825,35.1307121 L13.285825,43 L17.7142719,43 L17.7142719,35.1307121 C25.0209719,34.0315246 31,27.8752299 31,20.4008125 L27.2353406,20.4008125 Z" id="Shape"></path>
        </g>
    </g>
</svg>