<?xml version="1.0" encoding="UTF-8"?>
<svg width="50px" height="50px" viewBox="0 0 50 50" version="1.1" xmlns="http://www.w3.org/2000/svg" xmlns:xlink="http://www.w3.org/1999/xlink">
    <!-- Generator: Sketch 60.1 (88133) - https://sketch.com -->
    <title>info-icon</title>
    <desc>Created with Sketch.</desc>
    <g id="info-icon" stroke="none" stroke-width="1" fill="none" fill-rule="evenodd">
        <path d="M29.078629,32 C29.078629,25.275154 38,24.7104723 38,16.137577 C38,10.4394251 33.3125,7 26.0544355,7 C20.1572581,7 15.7721774,9.10472279 13,12.7494867 L16.6794355,15.4188912 C18.6955645,12.8008214 21.6189516,11.3634497 25.7016129,11.3634497 C30.2379032,11.3634497 32.9092742,13.6221766 32.9092742,16.9075975 C32.9092742,22.8110883 24.0383065,23.9404517 24.0383065,32 L29.078629,32 Z M26.5271318,43 C28.5348837,43 30,41.640625 30,40 C30,38.3125 28.5348837,37 26.5271318,37 C24.4651163,37 23,38.3125 23,40 C23,41.640625 24.4651163,43 26.5271318,43 Z" id="?" fill="#325C6F" fill-rule="nonzero"></path>
    </g>
</svg>